{
  "accessors": [
    {
      "bufferView": 2,
      "componentType": 5126,
      "count": 58669,
      "max": [
        4.9926581382751465,
        27.24942970275879,
        7.714602947235107
      ],
      "min": [
        -5.394688129425049,
        -25.95937156677246,
        -7.56849479675293
      ],
      "type": "VEC3"
    },
    {
      "bufferView": 2,
      "byteOffset": 704028,
      "componentType": 5126,
      "count": 58669,
      "max": [
        0.9999972581863403,
        0.9999659061431885,
        0.9999614953994751
      ],
      "min": [
        -0.9999840259552002,
        -0.9999827742576599,
        -1.0
      ],
      "type": "VEC3"
    },
    {
      "bufferView": 3,
      "componentType": 5126,
      "count": 58669,
      "max": [
        0.9999890923500061,
        0.9999836683273315,
        0.9999626278877258,
        1.0
      ],
      "min": [
        -0.9999465346336365,
        -0.9999963641166687,
        -0.9999693036079407,
        -1.0
      ],
      "type": "VEC4"
    },
    {
      "bufferView": 1,
      "componentType": 5126,
      "count": 58669,
      "max": [
        1.0,
        0.8615970015525818
      ],
      "min": [
        0.0,
        0.0
      ],
      "type": "VEC2"
    },
    {
      "bufferView": 0,
      "componentType": 5125,
      "count": 333120,
      "type": "SCALAR"
    }
  ],
  "asset": {
    "extras": {
      "author": "arqdehr (https://sketchfab.com/arqdehr)",
      "license": "CC-BY-4.0 (http://creativecommons.org/licenses/by/4.0/)",
      "source": "https://sketchfab.com/3d-models/dinosaur-66a4a24b885a47bb9a65660d0a30de3d",
      "title": "Dinosaur"
    },
    "generator": "Sketchfab-12.68.0",
    "version": "2.0"
  },
  "bufferViews": [
    {
      "buffer": 0,
      "byteLength": 1332480,
      "name": "floatBufferViews",
      "target": 34963
    },
    {
      "buffer": 0,
      "byteLength": 469352,
      "byteOffset": 1332480,
      "byteStride": 8,
      "name": "floatBufferViews",
      "target": 34962
    },
    {
      "buffer": 0,
      "byteLength": 1408056,
      "byteOffset": 1801832,
      "byteStride": 12,
      "name": "floatBufferViews",
      "target": 34962
    },
    {
      "buffer": 0,
      "byteLength": 938704,
      "byteOffset": 3209888,
      "byteStride": 16,
      "name": "floatBufferViews",
      "target": 34962
    }
  ],
  "buffers": [
    {
      "byteLength": 4148592,
      "uri": "scene.bin"
    }
  ],
  "images": [
    {
      "uri": "textures/phong1SG_baseColor.jpeg"
    },
    {
      "uri": "textures/phong1SG_metallicRoughness.png"
    },
    {
      "uri": "textures/phong1SG_normal.png"
    }
  ],
  "materials": [
    {
      "doubleSided": true,
      "name": "phong1SG",
      "normalTexture": {
        "index": 2
      },
      "pbrMetallicRoughness": {
        "baseColorTexture": {
          "index": 0
        },
        "metallicRoughnessTexture": {
          "index": 1
        }
      }
    }
  ],
  "meshes": [
    {
      "name": "Object_0",
      "primitives": [
        {
          "attributes": {
            "NORMAL": 1,
            "POSITION": 0,
            "TANGENT": 2,
            "TEXCOORD_0": 3
          },
          "indices": 4,
          "material": 0,
          "mode": 4
        }
      ]
    }
  ],
  "nodes": [
    {
      "children": [
        1
      ],
      "matrix": [
        0.28671613335609436,
        0.0,
        0.0,
        0.0,
        0.0,
        6.366377055668656e-17,
        -0.28671613335609436,
        0.0,
        0.0,
        0.28671613335609436,
        6.366377055668656e-17,
        0.0,
        0.0,
        0.0,
        0.0,
        1.0
      ],
      "name": "Sketchfab_model"
    },
    {
      "children": [
        2
      ],
      "name": "dinoposed.obj.cleaner.materialmerger.gles"
    },
    {
      "mesh": 0,
      "name": "Object_2"
    }
  ],
  "samplers": [
    {
      "magFilter": 9729,
      "minFilter": 9987,
      "wrapS": 10497,
      "wrapT": 10497
    }
  ],
  "scene": 0,
  "scenes": [
    {
      "name": "Sketchfab_Scene",
      "nodes": [
        0
      ]
    }
  ],
  "textures": [
    {
      "sampler": 0,
      "source": 0
    },
    {
      "sampler": 0,
      "source": 1
    },
    {
      "sampler": 0,
      "source": 2
    }
  ]
}
