{
  "accessors": [
    {
      "bufferView": 2,
      "componentType": 5126,
      "count": 80,
      "max": [
        -1899.9327392578125,
        -52.29804229736328,
        855.8219604492188
      ],
      "min": [
        -1959.52587890625,
        -156.10113525390625,
        808.4486083984375
      ],
      "type": "VEC3"
    },
    {
      "bufferView": 2,
      "byteOffset": 960,
      "componentType": 5126,
      "count": 80,
      "max": [
        0.9652204513549805,
        0.7985563278198242,
        0.7823218107223511
      ],
      "min": [
        -0.9797499775886536,
        -0.8240121603012085,
        -0.8476418852806091
      ],
      "type": "VEC3"
    },
    {
      "bufferView": 3,
      "componentType": 5126,
      "count": 80,
      "max": [
        0.9757680892944336,
        0.6015969514846802,
        0.7092890739440918,
        1.0
      ],
      "min": [
        -0.9911172389984131,
        -0.6131522059440613,
        -0.9719138145446777,
        1.0
      ],
      "type": "VEC4"
    },
    {
      "bufferView": 1,
      "componentType": 5126,
      "count": 80,
      "max": [
        0.8257579803466797,
        0.24955399334430695
      ],
      "min": [
        0.8120149970054626,
        0.2308730036020279
      ],
      "type": "VEC2"
    },
    {
      "bufferView": 0,
      "componentType": 5125,
      "count": 120,
      "type": "SCALAR"
    },
    {
      "bufferView": 2,
      "byteOffset": 1920,
      "componentType": 5126,
      "count": 12256,
      "max": [
        1719.2457275390625,
        643.2384643554688,
        2020.006103515625
      ],
      "min": [
        -2142.177001953125,
        -659.9493408203125,
        11.292089462280273
      ],
      "type": "VEC3"
    },
    {
      "bufferView": 2,
      "byteOffset": 148992,
      "componentType": 5126,
      "count": 12256,
      "max": [
        0.9997584819793701,
        1.0,
        0.9999880194664001
      ],
      "min": [
        -0.9998583793640137,
        -0.9999814629554749,
        -0.9999252557754517
      ],
      "type": "VEC3"
    },
    {
      "bufferView": 3,
      "byteOffset": 1280,
      "componentType": 5126,
      "count": 12256,
      "max": [
        0.9994857907295227,
        0.9999756217002869,
        0.999980092048645,
        1.0
      ],
      "min": [
        -0.9999952912330627,
        -0.9999769926071167,
        -0.999920666217804,
        -1.0
      ],
      "type": "VEC4"
    },
    {
      "bufferView": 1,
      "byteOffset": 640,
      "componentType": 5126,
      "count": 12256,
      "max": [
        0.9941539764404297,
        0.9938099980354309
      ],
      "min": [
        0.0034370000939816236,
        0.002549000084400177
      ],
      "type": "VEC2"
    },
    {
      "bufferView": 0,
      "byteOffset": 480,
      "componentType": 5125,
      "count": 54378,
      "type": "SCALAR"
    }
  ],
  "asset": {
    "extras": {
      "author": "wojciechmiedziocha (https://sketchfab.com/wojciechmiedziocha)",
      "license": "CC-BY-4.0 (http://creativecommons.org/licenses/by/4.0/)",
      "source": "https://sketchfab.com/3d-models/stegosaur-dinosaur-34e641dcf62c437c844156d7ad2e68b8",
      "title": "Stegosaur dinosaur"
    },
    "generator": "Sketchfab-14.20.0",
    "version": "2.0"
  },
  "bufferViews": [
    {
      "buffer": 0,
      "byteLength": 217992,
      "name": "floatBufferViews",
      "target": 34963
    },
    {
      "buffer": 0,
      "byteLength": 98688,
      "byteOffset": 217992,
      "byteStride": 8,
      "name": "floatBufferViews",
      "target": 34962
    },
    {
      "buffer": 0,
      "byteLength": 296064,
      "byteOffset": 316680,
      "byteStride": 12,
      "name": "floatBufferViews",
      "target": 34962
    },
    {
      "buffer": 0,
      "byteLength": 197376,
      "byteOffset": 612744,
      "byteStride": 16,
      "name": "floatBufferViews",
      "target": 34962
    }
  ],
  "buffers": [
    {
      "byteLength": 810120,
      "uri": "scene.bin"
    }
  ],
  "images": [
    {
      "uri": "textures/skin_mat_baseColor.png"
    },
    {
      "uri": "textures/skin_mat_metallicRoughness.png"
    },
    {
      "uri": "textures/skin_mat_normal.png"
    }
  ],
  "materials": [
    {
      "doubleSided": true,
      "name": "skin_mat",
      "normalTexture": {
        "index": 2
      },
      "occlusionTexture": {
        "index": 1
      },
      "pbrMetallicRoughness": {
        "baseColorTexture": {
          "index": 0
        },
        "metallicFactor": 0.0,
        "metallicRoughnessTexture": {
          "index": 1
        }
      }
    }
  ],
  "meshes": [
    {
      "name": "Object_0",
      "primitives": [
        {
          "attributes": {
            "NORMAL": 1,
            "POSITION": 0,
            "TANGENT": 2,
            "TEXCOORD_0": 3
          },
          "indices": 4,
          "material": 0,
          "mode": 4
        }
      ]
    },
    {
      "name": "Object_1",
      "primitives": [
        {
          "attributes": {
            "NORMAL": 6,
            "POSITION": 5,
            "TANGENT": 7,
            "TEXCOORD_0": 8
          },
          "indices": 9,
          "material": 0,
          "mode": 4
        }
      ]
    }
  ],
  "nodes": [
    {
      "children": [
        1
      ],
      "matrix": [
        1.0,
        0.0,
        0.0,
        0.0,
        0.0,
        2.220446049250313e-16,
        -1.0,
        0.0,
        0.0,
        1.0,
        2.220446049250313e-16,
        0.0,
        0.0,
        0.0,
        0.0,
        1.0
      ],
      "name": "Sketchfab_model"
    },
    {
      "children": [
        2,
        3
      ],
      "name": "stegosaur_roar.obj.cleaner.materialmerger.gles"
    },
    {
      "mesh": 0,
      "name": "Object_2"
    },
    {
      "mesh": 1,
      "name": "Object_3"
    }
  ],
  "samplers": [
    {
      "magFilter": 9729,
      "minFilter": 9987,
      "wrapS": 10497,
      "wrapT": 10497
    }
  ],
  "scene": 0,
  "scenes": [
    {
      "name": "Sketchfab_Scene",
      "nodes": [
        0
      ]
    }
  ],
  "textures": [
    {
      "sampler": 0,
      "source": 0
    },
    {
      "sampler": 0,
      "source": 1
    },
    {
      "sampler": 0,
      "source": 2
    }
  ]
}
